<svg xmlns="http://www.w3.org/2000/svg" viewBox="0 0 64 64" fill="none">
  <!-- Pink Rose for Wedding Invitation -->
  <!-- Outer petals -->
  <ellipse cx="32" cy="24" rx="14" ry="18" fill="#F5A5B8" transform="rotate(-15 32 32)"/>
  <ellipse cx="32" cy="24" rx="14" ry="18" fill="#F8B4C4" transform="rotate(15 32 32)"/>
  <ellipse cx="24" cy="30" rx="12" ry="16" fill="#F7A8BA" transform="rotate(-35 24 30)"/>
  <ellipse cx="40" cy="30" rx="12" ry="16" fill="#F7A8BA" transform="rotate(35 40 30)"/>
  
  <!-- Mid petals -->
  <ellipse cx="32" cy="28" rx="11" ry="14" fill="#F9B9C8" transform="rotate(-10 32 28)"/>
  <ellipse cx="32" cy="28" rx="11" ry="14" fill="#FACCD5" transform="rotate(10 32 28)"/>
  <ellipse cx="26" cy="32" rx="9" ry="12" fill="#F8B4C4" transform="rotate(-25 26 32)"/>
  <ellipse cx="38" cy="32" rx="9" ry="12" fill="#F8B4C4" transform="rotate(25 38 32)"/>
  
  <!-- Inner petals -->
  <ellipse cx="32" cy="32" rx="8" ry="10" fill="#FBCED6"/>
  <ellipse cx="29" cy="33" rx="6" ry="8" fill="#FCD5DC" transform="rotate(-15 29 33)"/>
  <ellipse cx="35" cy="33" rx="6" ry="8" fill="#FCD5DC" transform="rotate(15 35 33)"/>
  
  <!-- Center spiral -->
  <ellipse cx="32" cy="34" rx="4" ry="5" fill="#FDE0E5"/>
  <ellipse cx="32" cy="35" rx="2.5" ry="3" fill="#FEEAED"/>
  
  <!-- Small leaf hints at bottom -->
  <ellipse cx="24" cy="48" rx="8" ry="4" fill="#7CB57C" transform="rotate(-30 24 48)"/>
  <ellipse cx="40" cy="48" rx="8" ry="4" fill="#7CB57C" transform="rotate(30 40 48)"/>
</svg>
